# xmcd CD database file
#
# Track frame offsets:
#	150
#	27597
#	46957
#	69104
#	96253
#	116203
#	161524
#	195732
#	223652
#	239913
#	259861
#	282713
#
# Disc length: 4098 seconds
#
# Revision: 1
# Processed by: cddbd v1.5.2PL0 Copyright (c) Steve Scherf et al.
# Submitted via: CDex 1.50
#
DISCID=bd10000c
DTITLE=Joni Mitchell - Shadows and Light
DYEAR=1980
DGENRE=Folk-Rock
TTITLE0=Intro - In France They Kiss on Main Street
TTITLE1=Edith And The Kingpin
TTITLE2=Coyote
TTITLE3=Goodbye Pork Pie Hat
TTITLE4=The Dry Cleaner From Des Moines
TTITLE5=Amelia - Pat's Solo
TTITLE6=Hejra
TTITLE7=Furry Sings The Blues
TTITLE8=Why Do Fools Fall in Love
TTITLE9=Shadows and Light
TTITLE10=God Must Be A Boogie Man
TTITLE11=Woodstock
EXTD=YEAR: 1980
EXTT0=
EXTT1=
EXTT2=
EXTT3=
EXTT4=
EXTT5=
EXTT6=
EXTT7=
EXTT8=
EXTT9=
EXTT10=
EXTT11=
PLAYORDER=
